<svg version="1.1" id="Layer_1" xmlns="http://www.w3.org/2000/svg" xmlns:xlink="http://www.w3.org/1999/xlink" x="0px" y="0px"
	 width="100%" viewBox="0 0 1024 1024" enable-background="new 0 0 1024 1024" xml:space="preserve">
<path fill="#000000" opacity="1.000000" stroke="none" 
	d="
M165.702301,524.000000 
	C165.689865,474.362274 165.746307,425.224304 165.561920,376.087219 
	C165.542984,371.041901 166.986481,369.554535 172.048279,369.574158 
	C217.520844,369.750763 262.997681,369.354431 308.466187,369.818451 
	C330.067688,370.038910 347.872742,378.591400 359.370056,397.862885 
	C370.239441,416.081818 367.277313,450.659607 346.588165,464.199707 
	C342.906250,466.609436 338.271027,467.608643 335.402710,471.265808 
	C336.321381,473.946167 338.694580,474.230042 340.594421,475.011780 
	C359.864471,482.941162 368.612000,498.203217 370.211121,518.116577 
	C371.313171,531.840210 369.351807,545.073669 361.085480,556.646362 
	C349.840668,572.388916 333.940033,580.384521 315.139435,581.165222 
	C267.373352,583.148743 219.559967,581.562073 171.768524,581.998718 
	C167.379272,582.038818 165.569153,580.690491 165.632355,575.968140 
	C165.861908,558.814880 165.710373,541.656494 165.702301,524.000000 
M299.655975,520.950867 
	C299.902435,519.641418 300.234283,518.341492 300.381989,517.021057 
	C301.669189,505.513214 295.708038,496.707916 285.874634,496.507507 
	C270.724152,496.198792 255.562683,496.448608 240.405991,496.415833 
	C235.969940,496.406250 234.207169,498.474762 234.340546,502.914093 
	C234.555496,510.069611 234.348206,517.236816 234.409821,524.398315 
	C234.463303,530.615356 235.392395,531.544250 241.770477,531.570801 
	C255.927689,531.629700 270.085266,531.614075 284.242706,531.606262 
	C291.444733,531.602295 296.751068,528.642151 299.655975,520.950867 
M265.499329,417.159851 
	C256.842621,417.174500 248.185776,417.223511 239.529312,417.185699 
	C236.381546,417.171936 234.395035,418.183167 234.428909,421.724854 
	C234.510101,430.212250 234.568909,438.700378 234.543488,447.187958 
	C234.533279,450.599579 236.078751,451.823151 239.441833,451.793579 
	C253.258255,451.671936 267.077362,451.827057 280.893158,451.672028 
	C289.693207,451.573303 295.618225,444.723175 295.682465,435.026337 
	C295.752563,424.443848 290.171204,417.605225 280.980377,417.245972 
	C276.159424,417.057556 271.326355,417.178650 265.499329,417.159851 
z"/>
<path fill="#000000" opacity="1.000000" stroke="none" 
	d="
M508.000061,369.675781 
	C523.103882,370.274353 537.711182,368.770538 552.334595,371.354858 
	C578.895447,376.048889 598.093018,392.848694 603.909851,419.777771 
	C609.771851,446.915710 601.111694,473.164429 575.813599,488.310699 
	C566.062988,494.148529 566.028992,494.179321 571.513916,504.567078 
	C583.957214,528.133179 596.450989,551.672607 608.898132,575.236694 
	C609.810486,576.963989 611.202759,578.549133 610.956726,580.773254 
	C609.475830,582.669495 607.327271,582.138550 605.423157,582.138855 
	C583.758057,582.142517 562.092285,581.980713 540.428528,582.129211 
	C536.055481,582.159180 533.886902,580.360229 532.098816,576.620911 
	C521.824829,555.135437 511.210785,533.811462 501.063477,512.267273 
	C498.634491,507.110138 495.863007,504.211365 489.821198,505.105713 
	C486.560638,505.588318 483.167786,505.154999 479.834900,505.176208 
	C473.568787,505.216156 473.282562,505.469727 473.277466,511.630310 
	C473.259796,532.962158 473.277008,554.294006 473.273041,575.625854 
	C473.271881,581.991516 473.148682,582.103333 466.904602,582.094116 
	C448.072693,582.066406 429.240723,582.047424 410.408844,582.008240 
	C404.331940,581.995605 403.925415,581.565369 403.925354,575.465515 
	C403.924713,509.303467 403.925018,443.141449 403.926544,376.979401 
	C403.926727,369.697418 403.931152,369.680786 411.006989,369.679291 
	C443.171356,369.672638 475.335693,369.676178 508.000061,369.675781 
M500.497955,456.701172 
	C502.494263,456.699799 504.490570,456.702301 506.486877,456.696381 
	C512.299011,456.679108 518.208130,457.131775 523.757141,455.015900 
	C531.965820,451.885834 536.456970,443.319763 534.885254,434.385468 
	C533.317505,425.473114 526.773193,419.465607 517.693604,419.288971 
	C504.722565,419.036530 491.743011,419.252472 478.769318,419.089600 
	C474.578156,419.036957 473.203247,420.950317 473.256226,424.853333 
	C473.371368,433.335999 473.427826,441.824005 473.247955,450.304260 
	C473.151459,454.854126 475.270569,456.657288 479.536438,456.654694 
	C486.190582,456.650635 492.844757,456.687469 500.497955,456.701172 
z"/>
<path fill="#000000" opacity="1.000000" stroke="none" 
	d="
M633.876526,378.085999 
	C632.242432,375.438049 630.140930,373.429901 629.653564,370.595184 
	C631.518921,369.146454 633.414795,369.701080 635.170044,369.698090 
	C659.001343,369.657471 682.833679,369.774719 706.663208,369.566498 
	C710.607300,369.532043 712.638184,370.981812 714.504700,374.200775 
	C722.692505,388.321533 731.100159,402.314880 739.425171,416.356171 
	C742.898682,422.214752 744.346619,422.248566 747.831909,416.461975 
	C756.423157,402.197845 765.019592,387.936676 773.543274,373.632233 
	C775.004883,371.179443 776.570984,369.604523 779.774658,369.620453 
	C802.938843,369.735565 826.103821,369.684479 849.268555,369.703339 
	C850.076721,369.703979 850.884766,369.886444 851.707703,369.985962 
	C852.468445,372.522491 850.605896,373.824005 849.557678,375.356110 
	C829.618042,404.502960 809.629944,433.616638 789.670959,462.750244 
	C784.760254,469.918274 784.794983,469.936676 789.561951,476.970245 
	C811.900635,509.930542 834.241089,542.889648 856.560852,575.862854 
	C857.564575,577.345642 858.987793,578.670532 858.880005,580.764343 
	C857.322632,582.497559 855.201355,581.988892 853.286072,581.993225 
	C829.621521,582.046936 805.956360,581.983887 782.292419,582.123474 
	C778.317322,582.146851 775.917908,580.736206 773.904297,577.280579 
	C763.507080,559.437439 752.898132,541.717468 742.328857,523.974915 
	C741.003540,521.750244 739.964050,519.236816 736.802429,517.389282 
	C732.286438,524.990112 727.901550,532.379456 723.507690,539.763489 
	C715.842651,552.644714 708.142639,565.505310 700.531006,578.417969 
	C699.131897,580.791321 697.419678,582.048279 694.543579,582.044067 
	C671.879028,582.010681 649.214294,582.078247 626.549622,582.085205 
	C625.090881,582.085693 623.509216,582.270813 622.295776,580.832581 
	C622.125977,578.300415 624.094055,576.706848 625.335022,574.863525 
	C648.026917,541.158508 670.730103,507.460663 693.596436,473.874054 
	C695.761597,470.693817 695.688538,468.498383 693.584900,465.437439 
	C673.676575,436.469513 653.895264,407.414337 633.876526,378.085999 
z"/>
<path fill="#000000" opacity="1.000000" stroke="none" 
	d="
M166.986420,645.651978 
	C167.003922,633.877319 166.979355,622.560730 167.091629,611.245605 
	C167.111343,609.259460 166.311829,606.580933 169.290085,605.849487 
	C171.928925,605.201294 173.945938,606.078186 175.682587,608.463989 
	C179.668945,613.940491 182.844116,620.022217 187.952194,625.624817 
	C191.897049,619.944519 195.617447,614.708557 199.196701,609.377869 
	C200.778610,607.021912 202.458633,605.023315 205.620331,605.819031 
	C209.177063,606.714233 208.039261,609.787964 208.068069,612.038879 
	C208.210815,623.186951 208.153061,634.337463 208.185211,645.487122 
	C208.193314,648.294739 208.173416,650.911133 204.229279,650.986877 
	C200.080658,651.066467 200.392624,648.202942 200.382004,645.533020 
	C200.352936,638.223389 200.371994,630.913574 200.371994,622.005981 
	C196.946396,626.890747 194.410980,630.563538 191.814774,634.192871 
	C188.959015,638.184998 186.661575,638.193054 183.710114,634.167603 
	C181.275925,630.847717 178.958145,627.442444 175.934509,623.145142 
	C174.616531,629.486816 175.391998,634.730957 175.192520,639.911865 
	C175.115738,641.906067 175.120361,643.906799 175.177521,645.901917 
	C175.258270,648.720764 174.630020,650.855164 171.201355,650.929993 
	C167.801834,651.004211 166.947678,648.979553 166.986420,645.651978 
z"/>
<path fill="#000000" opacity="1.000000" stroke="none" 
	d="
M578.678833,611.364319 
	C579.854187,613.015137 580.968811,614.304260 581.668518,615.788940 
	C582.589294,617.742737 584.868713,620.311768 581.961243,621.823730 
	C579.599915,623.051758 576.250549,623.247375 574.654846,619.839539 
	C570.953674,611.935303 558.339966,611.513062 552.739868,615.743408 
	C546.820679,620.214844 544.966919,630.159302 549.178101,636.952759 
	C553.211853,643.460022 561.848755,645.776123 568.433655,642.140015 
	C570.215759,641.155945 571.728638,639.970947 572.471191,637.730835 
	C569.737671,635.165100 566.440552,636.411072 563.482971,636.184631 
	C560.627869,635.966064 558.067871,635.856018 558.199463,631.945251 
	C558.322083,628.303345 560.509827,627.655212 563.552612,627.706177 
	C569.043457,627.798096 574.537048,627.751038 580.029358,627.729126 
	C583.205383,627.716431 584.467957,628.874756 583.868408,632.335388 
	C582.019409,643.007263 572.083740,651.954285 561.771057,651.905884 
	C550.373047,651.852417 541.159241,644.022400 539.020020,632.571777 
	C536.931091,621.390747 543.120667,610.028442 553.333313,606.382751 
	C562.601685,603.074097 570.990173,604.596558 578.678833,611.364319 
z"/>
<path fill="#000000" opacity="1.000000" stroke="none" 
	d="
M749.588806,613.266174 
	C741.875061,615.560547 737.169617,621.782104 737.476196,628.770081 
	C737.771606,635.501526 742.397827,641.550232 748.596008,643.308960 
	C754.714478,645.045105 760.739563,642.726562 764.154846,637.112854 
	C760.894043,635.299438 757.382996,636.294373 754.059753,636.164185 
	C750.885254,636.039856 748.966797,635.114380 749.033386,631.554626 
	C749.101379,627.923157 751.471863,627.755188 754.165283,627.779114 
	C759.662537,627.828064 765.161926,627.896423 770.657532,627.795837 
	C774.551941,627.724609 775.572144,629.422607 774.833313,633.099609 
	C772.422913,645.096680 760.439697,653.426025 748.415405,651.291870 
	C736.199707,649.123840 727.777283,636.944336 729.973145,624.622925 
	C733.178467,606.637207 753.111145,598.670105 767.625977,609.573059 
	C771.654419,612.599060 773.656616,616.258484 774.075134,621.597900 
	C770.383057,622.813477 767.396423,622.979370 764.962158,618.805664 
	C761.642639,613.114136 755.911011,612.647400 749.588806,613.266174 
z"/>
<path fill="#000000" opacity="1.000000" stroke="none" 
	d="
M311.968140,628.103027 
	C310.928864,648.384766 291.409546,656.139343 277.534027,649.082336 
	C267.569702,644.014526 262.763489,632.451111 265.998962,621.059753 
	C268.909973,610.810730 278.917786,603.984375 290.035339,604.664368 
	C301.255035,605.350647 310.032806,613.557556 311.494232,624.720215 
	C311.623749,625.709412 311.793427,626.693359 311.968140,628.103027 
M294.655487,642.369385 
	C296.036865,641.463745 297.553497,640.710571 298.776154,639.626038 
	C304.016327,634.978027 305.353790,627.252625 302.125549,620.970398 
	C299.214264,615.304932 292.196991,611.663025 286.418915,612.818909 
	C276.613342,614.780518 271.228058,622.864746 273.478485,632.244812 
	C275.550476,640.881226 284.390167,645.375122 294.655487,642.369385 
z"/>
<path fill="#000000" opacity="1.000000" stroke="none" 
	d="
M371.369324,650.739258 
	C368.893616,649.599426 369.101288,647.636658 369.096222,645.844849 
	C369.062836,634.031433 369.156952,622.216919 369.033447,610.404663 
	C368.989471,606.197632 370.512573,604.319763 374.907623,604.666931 
	C379.859863,605.058105 384.842957,604.350342 389.809113,605.482910 
	C396.190002,606.938171 399.268311,611.191223 400.687714,617.117310 
	C402.022400,622.689697 400.134216,627.307068 396.108521,631.049561 
	C391.435791,635.393616 391.345581,635.437988 395.576324,640.487854 
	C397.711121,643.036072 399.846527,645.584106 401.948975,648.158936 
	C402.246307,648.523071 402.357147,649.039429 402.550415,649.476501 
	C398.180511,652.082764 394.822266,651.663391 391.716461,648.047485 
	C388.573364,644.388123 385.521912,640.650146 382.410736,636.963135 
	C381.364807,635.723633 380.497192,634.233765 378.208038,633.739563 
	C376.132721,637.645447 377.275299,641.824768 377.155457,645.774902 
	C377.041107,649.543640 375.768463,651.484619 371.369324,650.739258 
M392.636505,622.350464 
	C393.852386,618.858215 392.770203,615.908081 389.726868,614.230164 
	C386.278687,612.329102 382.277466,612.168579 378.708344,613.826477 
	C376.065338,615.054138 376.531677,625.168091 379.024628,626.478638 
	C382.575958,628.345520 389.495850,626.557617 392.636505,622.350464 
z"/>
<path fill="#000000" opacity="1.000000" stroke="none" 
	d="
M837.264160,604.892334 
	C844.065674,604.892944 850.396912,604.916748 856.728210,604.909546 
	C859.371704,604.906494 861.252502,605.547974 861.275146,608.785645 
	C861.296997,611.911865 859.604858,612.864563 856.901611,612.911133 
	C852.737427,612.982788 848.572876,613.107788 844.408875,613.095215 
	C840.062439,613.082031 840.500366,616.115723 840.359680,618.996338 
	C840.211487,622.030701 841.086548,623.765198 844.502930,623.669556 
	C848.664124,623.553040 852.833496,623.758789 856.997253,623.693054 
	C859.752563,623.649658 860.957275,624.912476 860.948425,627.593689 
	C860.939392,630.329529 859.603333,631.439148 856.899109,631.378784 
	C852.736084,631.285767 848.564331,631.498047 844.404968,631.345093 
	C839.857605,631.178040 840.450806,634.334534 840.402588,637.128845 
	C840.353455,639.972229 839.854309,643.046326 844.367920,642.905334 
	C848.695068,642.770142 853.030701,642.927307 857.362549,642.912476 
	C859.910950,642.903748 861.529602,643.822144 861.570007,646.642578 
	C861.609741,649.412537 860.602844,651.098999 857.537109,651.076660 
	C850.706726,651.026855 843.875977,651.043884 837.045349,651.032837 
	C833.866211,651.027710 832.715210,649.352173 832.735413,646.279968 
	C832.816345,633.950928 832.815735,621.620911 832.760864,609.291687 
	C832.748108,606.433167 833.789795,604.842468 837.264160,604.892334 
z"/>
<path fill="#000000" opacity="1.000000" stroke="none" 
	d="
M676.293030,645.602844 
	C676.874512,647.337097 677.781982,648.673279 676.791199,650.450256 
	C672.440918,651.965637 669.032104,651.191345 667.898682,646.034973 
	C666.840759,641.222046 663.962036,639.480957 659.260437,640.123779 
	C658.118225,640.279907 656.914978,640.271118 655.773865,640.104553 
	C650.727661,639.367859 647.743286,641.209229 646.169250,646.309143 
	C644.553223,651.545410 642.600525,652.067871 636.805908,649.936890 
	C637.509827,645.012756 640.003479,640.651550 641.747620,636.072205 
	C645.237305,626.909180 649.027954,617.860962 652.665283,608.753662 
	C653.488647,606.692017 654.224670,604.745728 657.033325,604.734619 
	C659.834900,604.723511 660.636108,606.657959 661.460510,608.709167 
	C666.357239,620.892456 671.258057,633.074097 676.293030,645.602844 
M661.188171,630.535767 
	C660.803406,626.966980 660.028442,623.576599 656.918884,620.788574 
	C654.520813,623.985168 652.122070,627.270935 653.859253,630.714783 
	C655.057556,633.090454 658.418640,632.509521 661.188171,630.535767 
z"/>
<path fill="#000000" opacity="1.000000" stroke="none" 
	d="
M473.366943,616.633667 
	C473.346558,626.724121 473.316620,636.377869 473.360535,646.031372 
	C473.372955,648.763000 473.169373,651.076965 469.530396,651.032654 
	C466.014832,650.989929 465.624390,648.843018 465.644562,646.030518 
	C465.712616,636.543640 465.527863,627.053101 465.723450,617.569885 
	C465.802887,613.717834 464.561859,611.939514 460.587036,612.330017 
	C458.939545,612.491882 457.260254,612.299927 455.597107,612.339844 
	C453.323914,612.394409 452.201508,611.456421 452.343048,609.062073 
	C452.467773,606.951965 452.569000,604.901062 455.407074,604.895813 
	C464.726837,604.878723 474.046753,604.878540 483.366425,604.922974 
	C485.805664,604.934631 486.975952,606.313049 486.961029,608.737000 
	C486.945984,611.182251 485.812592,612.417297 483.284729,612.342590 
	C481.456604,612.288452 479.619537,612.299255 477.795105,612.415955 
	C475.425598,612.567688 473.576691,613.447327 473.366943,616.633667 
z"/>
</svg>